<svg width="211" height="158" viewBox="0 0 211 158" fill="none" xmlns="http://www.w3.org/2000/svg">
<g clip-path="url(#clip0_3_4)">
<path d="M85.2483 91.1596C79.1259 113.989 66.1648 133.969 42.6242 133.969C19.0835 133.969 0 114.803 0 91.1596C0 67.5164 24.812 63.808 42.6242 48.3498C78.7954 16.9586 104.261 20.2627 85.2483 91.1596Z" fill="#F2F2F2"/>
<path d="M97.7358 34.7705C105.251 34.7705 111.344 28.6515 111.344 21.1035C111.344 13.5554 105.251 7.43646 97.7358 7.43646C90.2205 7.43646 84.1281 13.5554 84.1281 21.1035C84.1281 28.6515 90.2205 34.7705 97.7358 34.7705Z" fill="#FF6584"/>
<path d="M122.35 2.00986H115.146V9.24533H122.35V2.00986Z" fill="#FF6584"/>
<path d="M43.144 138.705C61.9323 138.705 77.1633 136.624 77.1633 134.057C77.1633 131.49 61.9323 129.409 43.144 129.409C24.3557 129.409 9.12471 131.49 9.12471 134.057C9.12471 136.624 24.3557 138.705 43.144 138.705Z" fill="#3F3D56"/>
<path d="M98.7364 25.9271H52.7103V49.4424H98.7364V25.9271Z" fill="#1BBC65"/>
<path d="M41.3039 127.224C50.0349 127.224 57.1128 120.115 57.1128 111.346C57.1128 102.577 50.0349 95.468 41.3039 95.468C32.5728 95.468 25.4949 102.577 25.4949 111.346C25.4949 120.115 32.5728 127.224 41.3039 127.224Z" fill="#2F2E41"/>
<path d="M38.9025 123.807H34.0998V132.449H38.9025V123.807Z" fill="#2F2E41"/>
<path d="M48.5079 123.807H43.7052V132.449H48.5079V123.807Z" fill="#2F2E41"/>
<path d="M38.102 134.057C40.3124 134.057 42.1043 133.382 42.1043 132.55C42.1043 131.717 40.3124 131.042 38.102 131.042C35.8917 131.042 34.0998 131.717 34.0998 132.55C34.0998 133.382 35.8917 134.057 38.102 134.057Z" fill="#2F2E41"/>
<path d="M47.7075 133.856C49.9179 133.856 51.7098 133.181 51.7098 132.349C51.7098 131.516 49.9179 130.841 47.7075 130.841C45.4971 130.841 43.7052 131.516 43.7052 132.349C43.7052 133.181 45.4971 133.856 47.7075 133.856Z" fill="#2F2E41"/>
<path d="M41.7041 112.753C44.6881 112.753 47.1072 110.323 47.1072 107.326C47.1072 104.329 44.6881 101.9 41.7041 101.9C38.7201 101.9 36.301 104.329 36.301 107.326C36.301 110.323 38.7201 112.753 41.7041 112.753Z" fill="white"/>
<path d="M41.7041 109.135C42.6988 109.135 43.5051 108.325 43.5051 107.326C43.5051 106.327 42.6988 105.517 41.7041 105.517C40.7094 105.517 39.9031 106.327 39.9031 107.326C39.9031 108.325 40.7094 109.135 41.7041 109.135Z" fill="#3F3D56"/>
<path d="M25.9686 96.5799C24.6921 90.8382 28.7726 85.0365 35.0826 83.6214C41.3926 82.2063 47.5427 85.7137 48.8192 91.4553C50.0957 97.197 45.9138 99.3146 39.6038 100.73C33.2938 102.145 27.2451 102.322 25.9686 96.5799Z" fill="#1BBC65"/>
<path d="M35.9008 81.6C44.6318 81.6 51.7098 74.4913 51.7098 65.7222C51.7098 56.9531 44.6318 49.8444 35.9008 49.8444C27.1698 49.8444 20.0918 56.9531 20.0918 65.7222C20.0918 74.4913 27.1698 81.6 35.9008 81.6Z" fill="#2F2E41"/>
<path d="M33.4994 78.1833H28.6967V86.8256H33.4994V78.1833Z" fill="#2F2E41"/>
<path d="M43.1049 78.1833H38.3022V86.8256H43.1049V78.1833Z" fill="#2F2E41"/>
<path d="M32.699 88.4335C34.9094 88.4335 36.7013 87.7586 36.7013 86.9261C36.7013 86.0936 34.9094 85.4187 32.699 85.4187C30.4886 85.4187 28.6967 86.0936 28.6967 86.9261C28.6967 87.7586 30.4886 88.4335 32.699 88.4335Z" fill="#2F2E41"/>
<path d="M42.3044 88.2325C44.5148 88.2325 46.3067 87.5576 46.3067 86.7251C46.3067 85.8926 44.5148 85.2178 42.3044 85.2178C40.094 85.2178 38.3022 85.8926 38.3022 86.7251C38.3022 87.5576 40.094 88.2325 42.3044 88.2325Z" fill="#2F2E41"/>
<path d="M36.301 67.1291C39.2851 67.1291 41.7041 64.6995 41.7041 61.7025C41.7041 58.7055 39.2851 56.2759 36.301 56.2759C33.317 56.2759 30.898 58.7055 30.898 61.7025C30.898 64.6995 33.317 67.1291 36.301 67.1291Z" fill="white"/>
<path d="M36.301 63.5114C37.2957 63.5114 38.102 62.7015 38.102 61.7025C38.102 60.7035 37.2957 59.8936 36.301 59.8936C35.3063 59.8936 34.5 60.7035 34.5 61.7025C34.5 62.7015 35.3063 63.5114 36.301 63.5114Z" fill="#3F3D56"/>
<path d="M20.5656 50.9562C19.2891 45.2146 23.3695 39.4129 29.6795 37.9978C35.9896 36.5827 42.1396 40.09 43.4161 45.8317C44.6926 51.5734 40.5108 53.691 34.2008 55.1061C27.8908 56.5212 21.8421 56.6979 20.5656 50.9562Z" fill="#1BBC65"/>
<path d="M52.8309 54.622C54.3895 50.5264 54.6153 46.8079 53.3351 46.3165C52.055 45.825 49.7537 48.7468 48.1951 52.8423C46.6365 56.9379 46.4107 60.6564 47.6909 61.1478C48.971 61.6393 51.2723 58.7175 52.8309 54.622Z" fill="#2F2E41"/>
<path d="M25.2366 61.7569C25.8238 60.5132 23.1024 57.9819 19.158 56.103C15.2136 54.2241 11.54 53.7091 10.9527 54.9527C10.3654 56.1964 13.0869 58.7277 17.0313 60.6066C20.9756 62.4855 24.6493 63.0005 25.2366 61.7569Z" fill="#2F2E41"/>
<path d="M28.1355 71.4503C28.1355 73.0043 32.1195 76.0729 36.5402 76.0729C40.961 76.0729 45.106 71.6979 45.106 70.1439C45.106 68.5899 40.961 70.4454 36.5402 70.4454C32.1195 70.4454 28.1355 69.8963 28.1355 71.4503Z" fill="white"/>
<path d="M103.139 22.5103H57.1128V46.0256H103.139V22.5103Z" stroke="#3F3D56" stroke-width="2" stroke-miterlimit="10"/>
<path d="M124.751 0.200989H117.547V7.43646H124.751V0.200989Z" stroke="#3F3D56" stroke-width="2" stroke-miterlimit="10"/>
<path d="M211 108.592C211 125.038 201.265 130.78 189.257 130.78C177.249 130.78 167.515 125.038 167.515 108.592C167.515 92.1456 189.257 71.2236 189.257 71.2236C189.257 71.2236 211 92.1456 211 108.592Z" fill="#F2F2F2"/>
<path d="M188.465 128.265L188.688 114.5L197.955 97.4726L188.723 112.342L188.823 106.153L195.21 93.833L188.849 104.515V104.515L189.03 93.384L195.869 83.5761L189.058 91.6336L189.17 71.2236L188.463 98.2428L188.521 97.1281L181.568 86.4381L188.41 99.2678L187.762 111.699L187.743 111.369L179.726 100.12L187.718 112.535L187.637 114.089L187.623 114.113L187.63 114.24L185.986 145.78H188.182L188.445 129.489L196.418 117.104L188.465 128.265Z" fill="#3F3D56"/>
<path d="M186.92 148.029C191.095 148.029 194.48 147.022 194.48 145.779C194.48 144.536 191.095 143.529 186.92 143.529C182.745 143.529 179.36 144.536 179.36 145.779C179.36 147.022 182.745 148.029 186.92 148.029Z" fill="#3F3D56"/>
<path d="M153.006 158C171.795 158 187.026 155.919 187.026 153.352C187.026 150.785 171.795 148.704 153.006 148.704C134.218 148.704 118.987 150.785 118.987 153.352C118.987 155.919 134.218 158 153.006 158Z" fill="#3F3D56"/>
<path d="M153.406 145.413C162.138 145.413 169.215 138.304 169.215 129.535C169.215 120.766 162.138 113.657 153.406 113.657C144.675 113.657 137.598 120.766 137.598 129.535C137.598 138.304 144.675 145.413 153.406 145.413Z" fill="#2F2E41"/>
<path d="M155.808 150.638H160.611V141.996H155.808V150.638Z" fill="#2F2E41"/>
<path d="M146.202 150.638H151.005V141.996H146.202V150.638Z" fill="#2F2E41"/>
<path d="M148.354 152.848C150.268 151.738 151.484 150.254 151.069 149.533C150.655 148.812 148.767 149.127 146.853 150.237C144.938 151.347 143.723 152.832 144.137 153.553C144.552 154.274 146.439 153.958 148.354 152.848Z" fill="#2F2E41"/>
<path d="M157.759 152.848C159.673 151.738 160.889 150.254 160.475 149.533C160.06 148.812 158.172 149.127 156.258 150.237C154.344 151.347 153.128 152.832 153.542 153.553C153.957 154.274 155.845 153.958 157.759 152.848Z" fill="#2F2E41"/>
<path d="M153.006 130.942C155.99 130.942 158.409 128.512 158.409 125.515C158.409 122.518 155.99 120.089 153.006 120.089C150.022 120.089 147.603 122.518 147.603 125.515C147.603 128.512 150.022 130.942 153.006 130.942Z" fill="white"/>
<path d="M151.166 125.013C152.161 125.013 152.967 124.203 152.967 123.204C152.967 122.205 152.161 121.395 151.166 121.395C150.171 121.395 149.365 122.205 149.365 123.204C149.365 124.203 150.171 125.013 151.166 125.013Z" fill="#3F3D56"/>
<path d="M168.742 114.769C170.018 109.027 165.938 103.226 159.628 101.811C153.318 100.395 147.168 103.903 145.891 109.645C144.615 115.386 148.797 117.504 155.107 118.919C161.417 120.334 167.465 120.511 168.742 114.769Z" fill="#1BBC65"/>
<path d="M146.822 127.201C147.362 125.935 144.545 123.511 140.532 121.786C136.519 120.061 132.828 119.688 132.289 120.953C131.749 122.219 134.566 124.643 138.579 126.368C142.593 128.093 146.283 128.466 146.822 127.201Z" fill="#2F2E41"/>
<path d="M176.439 137.853C176.978 136.588 174.162 134.163 170.149 132.438C166.135 130.713 162.445 130.34 161.906 131.605C161.366 132.871 164.183 135.295 168.196 137.02C172.209 138.746 175.9 139.118 176.439 137.853Z" fill="#2F2E41"/>
<path d="M133.956 114.562H126.752V121.797H133.956V114.562Z" fill="#FF6584"/>
<path d="M126.352 101.699H119.148V108.934H126.352V101.699Z" stroke="#3F3D56" stroke-width="2" stroke-miterlimit="10"/>
<path d="M156.569 136.469C156.569 137.428 156.19 138.349 155.514 139.027C154.839 139.706 153.922 140.087 152.967 140.087C152.012 140.087 151.096 139.706 150.42 139.027C149.745 138.349 149.365 137.428 149.365 136.469C149.365 134.471 150.978 134.057 152.967 134.057C154.956 134.057 156.569 134.471 156.569 136.469Z" fill="white"/>
</g>
<defs>
<clipPath id="clip0_3_4">
<rect width="211" height="158" fill="white"/>
</clipPath>
</defs>
</svg>
