<svg width="200" height="150" viewBox="0 0 200 150" fill="none" xmlns="http://www.w3.org/2000/svg">
<g clip-path="url(#clip0_13_130)">
<path d="M69.8901 45.9932H95.6986" stroke="#3F3D56" stroke-width="2" stroke-miterlimit="10"/>
<path d="M39.1441 74.6262C40.54 70.9549 40.7422 67.6216 39.5957 67.181C38.4491 66.7405 36.3881 69.3596 34.9921 73.0309C33.5962 76.7023 33.394 80.0356 34.5406 80.4761C35.6871 80.9166 37.7482 78.2976 39.1441 74.6262Z" fill="#2F2E41"/>
<path d="M199.179 91.758C201.987 112.763 198.164 133.792 178.717 141.98C159.271 150.168 136.903 140.959 128.758 121.411C120.612 101.862 139.831 90.1655 149.22 71.1886C168.285 32.6523 190.46 26.5262 199.179 91.758Z" fill="#F2F2F2"/>
<path d="M164.17 147.298C180.998 147.298 194.639 145.432 194.639 143.131C194.639 140.83 180.998 138.964 164.17 138.964C147.343 138.964 133.702 140.83 133.702 143.131C133.702 145.432 147.343 147.298 164.17 147.298Z" fill="#3F3D56"/>
<path d="M144.238 132.526L145.384 136.694L152.813 134.63L151.667 130.462L144.238 132.526Z" fill="#2F2E41"/>
<path d="M144.75 137.431C145.466 137.232 145.618 135.516 145.091 133.598C144.564 131.68 143.556 130.286 142.84 130.485C142.125 130.683 141.972 132.4 142.5 134.318C143.027 136.236 144.035 137.63 144.75 137.431Z" fill="#2F2E41"/>
<path d="M167.684 118.192C168.209 114.297 167.649 111.006 166.433 110.84C165.217 110.674 163.805 113.697 163.28 117.592C162.755 121.487 163.315 124.778 164.531 124.944C165.747 125.11 167.159 122.087 167.684 118.192Z" fill="#2F2E41"/>
<path d="M164.096 145.448C171.916 145.448 178.255 139.076 178.255 131.215C178.255 123.354 171.916 116.982 164.096 116.982C156.276 116.982 149.937 123.354 149.937 131.215C149.937 139.076 156.276 145.448 164.096 145.448Z" fill="#2F2E41"/>
<path d="M144.238 130.004L145.384 134.172L152.813 132.107L151.667 127.94L144.238 130.004Z" fill="#2F2E41"/>
<path d="M144.75 134.908C145.466 134.71 145.618 132.993 145.091 131.075C144.564 129.157 143.556 127.763 142.84 127.962C142.125 128.161 141.972 129.877 142.5 131.795C143.027 133.714 144.035 135.107 144.75 134.908Z" fill="#2F2E41"/>
<path d="M167.814 127.926C170.486 127.926 172.653 125.748 172.653 123.061C172.653 120.375 170.486 118.197 167.814 118.197C165.141 118.197 162.975 120.375 162.975 123.061C162.975 125.748 165.141 127.926 167.814 127.926Z" fill="white"/>
<path d="M169.361 122.534C170.252 122.534 170.974 121.808 170.974 120.913C170.974 120.017 170.252 119.291 169.361 119.291C168.471 119.291 167.748 120.017 167.748 120.913C167.748 121.808 168.471 122.534 169.361 122.534Z" fill="#3F3D56"/>
<path d="M180.447 140.996C185.686 140.732 189.699 135.806 189.41 129.992C189.12 124.178 184.638 119.679 179.398 119.943C174.159 120.206 173.337 124.341 173.626 130.155C173.916 135.968 175.207 141.26 180.447 140.996Z" fill="#1BBC65"/>
<path d="M158.309 125.193C157.457 125.262 156.612 124.988 155.96 124.431C155.308 123.874 154.903 123.079 154.834 122.222C154.765 121.365 155.038 120.515 155.592 119.86C156.146 119.205 156.936 118.798 157.789 118.728C159.565 118.584 160.049 120.001 160.193 121.786C160.337 123.571 160.085 125.048 158.309 125.193Z" fill="white"/>
<path d="M8.86517 65.0446H88.1711L100.467 71.0661L120.057 80.6603L132.866 56.5519H169.112" stroke="#3F3D56" stroke-width="2" stroke-miterlimit="10"/>
<path d="M39.9335 70.0326C41.2881 70.0326 42.3862 68.9287 42.3862 67.567C42.3862 66.2053 41.2881 65.1013 39.9335 65.1013C38.5789 65.1013 37.4807 66.2053 37.4807 67.567C37.4807 68.9287 38.5789 70.0326 39.9335 70.0326Z" fill="#6C63FF"/>
<path d="M62.8259 67.5103C64.1805 67.5103 65.2786 66.4064 65.2786 65.0447C65.2786 63.6829 64.1805 62.579 62.8259 62.579C61.4712 62.579 60.3731 63.6829 60.3731 65.0447C60.3731 66.4064 61.4712 67.5103 62.8259 67.5103Z" fill="#6C63FF"/>
<path d="M100.435 73.5374C101.79 73.5374 102.888 72.4335 102.888 71.0718C102.888 69.71 101.79 68.6061 100.435 68.6061C99.0803 68.6061 97.9822 69.71 97.9822 71.0718C97.9822 72.4335 99.0803 73.5374 100.435 73.5374Z" fill="#6C63FF"/>
<path d="M153.306 59.0175C154.66 59.0175 155.758 57.9136 155.758 56.5519C155.758 55.1901 154.66 54.0862 153.306 54.0862C151.951 54.0862 150.853 55.1901 150.853 56.5519C150.853 57.9136 151.951 59.0175 153.306 59.0175Z" fill="#6C63FF"/>
<path d="M127.688 68.6061C129.042 68.6061 130.141 67.5022 130.141 66.1405C130.141 64.7787 129.042 63.6748 127.688 63.6748C126.333 63.6748 125.235 64.7787 125.235 66.1405C125.235 67.5022 126.333 68.6061 127.688 68.6061Z" fill="#6C63FF"/>
<path d="M76.6324 107.415C78.0929 107.415 79.2769 106.224 79.2769 104.756C79.2769 103.288 78.0929 102.098 76.6324 102.098C75.1718 102.098 73.9878 103.288 73.9878 104.756C73.9878 106.224 75.1718 107.415 76.6324 107.415Z" stroke="#3F3D56" stroke-width="2" stroke-miterlimit="10"/>
<path d="M30.4683 150C47.2955 150 60.9366 148.134 60.9366 145.833C60.9366 143.532 47.2955 141.667 30.4683 141.667C13.6411 141.667 0 143.532 0 145.833C0 148.134 13.6411 150 30.4683 150Z" fill="#3F3D56"/>
<path d="M28.8202 139.708C36.6399 139.708 42.979 133.335 42.979 125.474C42.979 117.614 36.6399 111.241 28.8202 111.241C21.0005 111.241 14.6614 117.614 14.6614 125.474C14.6614 133.335 21.0005 139.708 28.8202 139.708Z" fill="#2F2E41"/>
<path d="M26.6695 136.645H22.3681V144.392H26.6695V136.645Z" fill="#2F2E41"/>
<path d="M35.2724 136.645H30.9709V144.392H35.2724V136.645Z" fill="#2F2E41"/>
<path d="M25.9526 145.833C27.9323 145.833 29.5371 145.228 29.5371 144.482C29.5371 143.736 27.9323 143.131 25.9526 143.131C23.9729 143.131 22.3681 143.736 22.3681 144.482C22.3681 145.228 23.9729 145.833 25.9526 145.833Z" fill="#2F2E41"/>
<path d="M34.5555 145.653C36.5351 145.653 38.14 145.048 38.14 144.302C38.14 143.556 36.5351 142.951 34.5555 142.951C32.5758 142.951 30.9709 143.556 30.9709 144.302C30.9709 145.048 32.5758 145.653 34.5555 145.653Z" fill="#2F2E41"/>
<path d="M29.1787 126.736C31.8512 126.736 34.0178 124.558 34.0178 121.871C34.0178 119.185 31.8512 117.007 29.1787 117.007C26.5061 117.007 24.3396 119.185 24.3396 121.871C24.3396 124.558 26.5061 126.736 29.1787 126.736Z" fill="white"/>
<path d="M29.1787 123.493C30.0696 123.493 30.7917 122.767 30.7917 121.871C30.7917 120.976 30.0696 120.25 29.1787 120.25C28.2879 120.25 27.5657 120.976 27.5657 121.871C27.5657 122.767 28.2879 123.493 29.1787 123.493Z" fill="#3F3D56"/>
<path d="M15.0857 112.238C13.9425 107.091 17.597 101.89 23.2484 100.622C28.8997 99.3533 34.4078 102.497 35.5511 107.644C36.6944 112.791 32.949 114.689 27.2976 115.958C21.6463 117.227 16.229 117.385 15.0857 112.238Z" fill="#1BBC65"/>
<path d="M23.9811 98.8098C31.8008 98.8098 38.1399 92.4374 38.1399 84.5767C38.1399 76.7159 31.8008 70.3435 23.9811 70.3435C16.1614 70.3435 9.82233 76.7159 9.82233 84.5767C9.82233 92.4374 16.1614 98.8098 23.9811 98.8098Z" fill="#2F2E41"/>
<path d="M21.8305 95.747H17.5291V103.494H21.8305V95.747Z" fill="#2F2E41"/>
<path d="M30.4332 95.747H26.1318V103.494H30.4332V95.747Z" fill="#2F2E41"/>
<path d="M21.1136 104.935C23.0932 104.935 24.6981 104.331 24.6981 103.584C24.6981 102.838 23.0932 102.233 21.1136 102.233C19.1339 102.233 17.5291 102.838 17.5291 103.584C17.5291 104.331 19.1339 104.935 21.1136 104.935Z" fill="#2F2E41"/>
<path d="M29.7163 104.755C31.696 104.755 33.3009 104.15 33.3009 103.404C33.3009 102.658 31.696 102.053 29.7163 102.053C27.7367 102.053 26.1318 102.658 26.1318 103.404C26.1318 104.15 27.7367 104.755 29.7163 104.755Z" fill="#2F2E41"/>
<path d="M24.3396 85.8379C27.0122 85.8379 29.1787 83.6599 29.1787 80.9734C29.1787 78.2868 27.0122 76.1089 24.3396 76.1089C21.6671 76.1089 19.5005 78.2868 19.5005 80.9734C19.5005 83.6599 21.6671 85.8379 24.3396 85.8379Z" fill="white"/>
<path d="M24.3396 82.5948C25.2304 82.5948 25.9526 81.8689 25.9526 80.9733C25.9526 80.0778 25.2304 79.3518 24.3396 79.3518C23.4487 79.3518 22.7266 80.0778 22.7266 80.9733C22.7266 81.8689 23.4487 82.5948 24.3396 82.5948Z" fill="#3F3D56"/>
<path d="M10.2467 71.3402C9.10342 66.1933 12.758 60.9926 18.4093 59.7241C24.0607 58.4555 29.5688 61.5996 30.7121 66.7465C31.8553 71.8934 28.11 73.7917 22.4586 75.0602C16.8072 76.3287 11.3899 76.4872 10.2467 71.3402Z" fill="#1BBC65"/>
<path d="M14.4301 81.0221C14.956 79.9073 12.5187 77.6381 8.98601 75.9538C5.45336 74.2696 2.16318 73.8079 1.6372 74.9228C1.11121 76.0376 3.5486 78.3067 7.08125 79.991C10.6139 81.6753 13.9041 82.1369 14.4301 81.0221Z" fill="#2F2E41"/>
<path d="M17.0264 89.7114C17.0264 91.1044 20.5945 93.8552 24.5538 93.8552C28.5132 93.8552 32.2255 89.9334 32.2255 88.5403C32.2255 87.1473 28.5132 88.8106 24.5538 88.8106C20.5945 88.8106 17.0264 88.3184 17.0264 89.7114Z" fill="white"/>
<path d="M172.344 101.742H149.738V113.301H172.344V101.742Z" fill="#1BBC65"/>
<path d="M170.575 103.619H147.969V115.179H170.575V103.619Z" stroke="#3F3D56" stroke-width="2" stroke-miterlimit="10"/>
<path d="M47.0652 35.8531H40.6131V42.3391H47.0652V35.8531Z" fill="#FF6584"/>
<path d="M45.4522 33.6911H39.0001V40.1771H45.4522V33.6911Z" stroke="#3F3D56" stroke-width="2" stroke-miterlimit="10"/>
<path d="M162.387 48.3693C170.207 48.3693 176.546 41.9969 176.546 34.1361C176.546 26.2754 170.207 19.903 162.387 19.903C154.568 19.903 148.229 26.2754 148.229 34.1361C148.229 41.9969 154.568 48.3693 162.387 48.3693Z" fill="#2F2E41"/>
<path d="M167.856 52.3651L172.088 51.5948L170.715 43.9716L166.483 44.7418L167.856 52.3651Z" fill="#2F2E41"/>
<path d="M159.391 53.9064L163.623 53.1362L162.251 45.5129L158.018 46.2832L159.391 53.9064Z" fill="#2F2E41"/>
<path d="M161.638 55.5107C163.148 54.2246 163.984 52.7203 163.504 52.1508C163.025 51.5813 161.411 52.1623 159.9 53.4484C158.39 54.7345 157.554 56.2388 158.034 56.8083C158.513 57.3778 160.127 56.7968 161.638 55.5107Z" fill="#2F2E41"/>
<path d="M169.927 54.0023C171.437 52.7162 172.273 51.212 171.793 50.6425C171.313 50.073 169.7 50.6539 168.189 51.94C166.678 53.2262 165.843 54.7304 166.323 55.2999C166.802 55.8694 168.416 55.2885 169.927 54.0023Z" fill="#2F2E41"/>
<path d="M161.396 35.5191C164.069 35.5191 166.235 33.3412 166.235 30.6546C166.235 27.968 164.069 25.7901 161.396 25.7901C158.724 25.7901 156.557 27.968 156.557 30.6546C156.557 33.3412 158.724 35.5191 161.396 35.5191Z" fill="white"/>
<path d="M159.407 30.5325C160.298 30.5325 161.02 29.8065 161.02 28.911C161.02 28.0155 160.298 27.2895 159.407 27.2895C158.516 27.2895 157.794 28.0155 157.794 28.911C157.794 29.8065 158.516 30.5325 159.407 30.5325Z" fill="#3F3D56"/>
<path d="M173.557 18.652C173.77 13.3827 169.252 8.91954 163.466 8.68329C157.681 8.44703 152.818 12.5271 152.605 17.7965C152.392 23.0658 156.414 24.263 162.199 24.4993C167.985 24.7355 173.344 23.9213 173.557 18.652Z" fill="#1BBC65"/>
<path d="M156.214 33.1331C156.488 31.9304 153.621 30.2436 149.81 29.3655C145.999 28.4873 142.688 28.7504 142.413 29.9531C142.139 31.1558 145.006 32.8426 148.817 33.7208C152.628 34.5989 155.94 34.3358 156.214 33.1331Z" fill="#2F2E41"/>
<path d="M184.007 37.7793C184.282 36.5766 181.415 34.8898 177.604 34.0117C173.793 33.1336 170.481 33.3967 170.207 34.5993C169.932 35.802 172.799 37.4888 176.61 38.367C180.421 39.2451 183.733 38.982 184.007 37.7793Z" fill="#2F2E41"/>
<path d="M166.276 39.7453C166.352 40.1643 166.344 40.5942 166.254 41.0104C166.165 41.4266 165.994 41.821 165.753 42.1709C165.511 42.5209 165.204 42.8196 164.847 43.0501C164.491 43.2805 164.093 43.4382 163.676 43.5141C163.26 43.5899 162.832 43.5825 162.418 43.4922C162.004 43.402 161.612 43.2306 161.263 42.9879C160.915 42.7452 160.618 42.436 160.389 42.0778C160.16 41.7197 160.003 41.3197 159.927 40.9006C159.61 39.1382 160.965 38.5146 162.719 38.1955C164.472 37.8765 165.959 37.9828 166.276 39.7453Z" fill="white"/>
<path d="M127.717 17.8365L144.026 30.4481" stroke="#3F3D56" stroke-width="2" stroke-miterlimit="10"/>
<path d="M120.01 24.5026C126.741 24.5026 132.197 19.0175 132.197 12.2513C132.197 5.4851 126.741 0 120.01 0C113.279 0 107.823 5.4851 107.823 12.2513C107.823 19.0175 113.279 24.5026 120.01 24.5026Z" fill="#FF6584"/>
<path d="M162.37 121.574C162.895 117.679 162.335 114.388 161.118 114.222C159.902 114.056 158.49 117.079 157.965 120.974C157.44 124.869 158 128.16 159.217 128.326C160.433 128.492 161.845 125.469 162.37 121.574Z" fill="#2F2E41"/>
<path d="M12.3328 144.081C13.6874 144.081 14.7855 142.977 14.7855 141.615C14.7855 140.254 13.6874 139.15 12.3328 139.15C10.9781 139.15 9.88 140.254 9.88 141.615C9.88 142.977 10.9781 144.081 12.3328 144.081Z" fill="#6C63FF"/>
<path d="M52.4419 138.728H45.9899V145.214H52.4419V138.728Z" fill="#FF6584"/>
<path d="M46.0271 145.522C47.3817 145.522 48.4798 144.418 48.4798 143.057C48.4798 141.695 47.3817 140.591 46.0271 140.591C44.6725 140.591 43.5743 141.695 43.5743 143.057C43.5743 144.418 44.6725 145.522 46.0271 145.522Z" fill="#6C63FF"/>
<path d="M82.7944 48.4127C84.1491 48.4127 85.2472 47.3088 85.2472 45.947C85.2472 44.5853 84.1491 43.4814 82.7944 43.4814C81.4398 43.4814 80.3417 44.5853 80.3417 45.947C80.3417 47.3088 81.4398 48.4127 82.7944 48.4127Z" fill="#6C63FF"/>
<path d="M130.426 123.556C131.073 123.556 131.597 123.029 131.597 122.378C131.597 121.728 131.073 121.201 130.426 121.201C129.779 121.201 129.255 121.728 129.255 122.378C129.255 123.029 129.779 123.556 130.426 123.556Z" fill="#FF6584"/>
<path d="M136.165 141.922V128.515" stroke="#3F3D56" stroke-width="2" stroke-miterlimit="10"/>
<path d="M136.164 130.411C137.206 130.411 138.05 129.562 138.05 128.515C138.05 127.468 137.206 126.619 136.164 126.619C135.123 126.619 134.279 127.468 134.279 128.515C134.279 129.562 135.123 130.411 136.164 130.411Z" fill="#3F3D56"/>
<path d="M136.165 136.778C136.165 136.778 135.895 130.953 130.372 131.63Z" fill="#3F3D56"/>
</g>
<defs>
<clipPath id="clip0_13_130">
<rect width="200" height="150" fill="white"/>
</clipPath>
</defs>
</svg>
